# xmcd CD database file
#
# Track frame offsets:
#	150
#	13884
#	27806
#	40871
#	53459
#	65751
#	79871
#	94075
#	107419
#	121644
#	134754
#	148575
#	162859
#	176878
#	189870
#	200455
#	214774
#	225561
#	238838
#	252777
#	267326
#
# Disc length: 3744 seconds
#
# Revision: 4
# Processed by: cddbd v1.5.1PL0 Copyright (c) Steve Scherf et al.
# Submitted via: CDex 1.51
#
DISCID=210e9e15
DTITLE=Александр Цфасман - Утомленное солнце (Антология джаза)
DYEAR=1900
DGENRE=Jazz
TTITLE0=Звуки джаза
TTITLE1=Утомленное солнце
TTITLE2=Джозеф
TTITLE3=Мне бесконечно жаль
TTITLE4=Сеньорита
TTITLE5=Мне грустно без тебя
TTITLE6=В дальний путь
TTITLE7=Краковяк
TTITLE8=Неудачное свидание
TTITLE9=Голубое небо
TTITLE10=Вечно
TTITLE11=Мне так грустно
TTITLE12=Тирольский вальс
TTITLE13=На берегу моря
TTITLE14=Анна
TTITLE15=Я не прощаюсь
TTITLE16=Кубинская румба
TTITLE17=Последний летний день
TTITLE18=Счастливый дождик
TTITLE19=Я сегодня грущу
TTITLE20=Спокойной ночи
EXTD=
EXTT0=
EXTT1=
EXTT2=
EXTT3=
EXTT4=
EXTT5=
EXTT6=
EXTT7=
EXTT8=
EXTT9=
EXTT10=
EXTT11=
EXTT12=
EXTT13=
EXTT14=
EXTT15=
EXTT16=
EXTT17=
EXTT18=
EXTT19=
EXTT20=
PLAYORDER=
